<?xml version="1.0" encoding="utf-8"?>
<svg xmlns="http://www.w3.org/2000/svg" xmlns:xlink="http://www.w3.org/1999/xlink" style="margin: auto; background: none; display: block; shape-rendering: auto;" width="203px" height="203px" viewBox="0 0 100 100" preserveAspectRatio="xMidYMid">
<g transform="rotate(0 50 50)">
  <rect x="46.5" y="26" rx="0" ry="0" width="7" height="12" fill="#000000">
    <animate attributeName="opacity" values="1;0" keyTimes="0;1" dur="0.3184713375796179s" begin="-0.28662420382165604s" repeatCount="indefinite"></animate>
  </rect>
</g><g transform="rotate(36 50 50)">
  <rect x="46.5" y="26" rx="0" ry="0" width="7" height="12" fill="#000000">
    <animate attributeName="opacity" values="1;0" keyTimes="0;1" dur="0.3184713375796179s" begin="-0.25477707006369427s" repeatCount="indefinite"></animate>
  </rect>
</g><g transform="rotate(72 50 50)">
  <rect x="46.5" y="26" rx="0" ry="0" width="7" height="12" fill="#000000">
    <animate attributeName="opacity" values="1;0" keyTimes="0;1" dur="0.3184713375796179s" begin="-0.2229299363057325s" repeatCount="indefinite"></animate>
  </rect>
</g><g transform="rotate(108 50 50)">
  <rect x="46.5" y="26" rx="0" ry="0" width="7" height="12" fill="#000000">
    <animate attributeName="opacity" values="1;0" keyTimes="0;1" dur="0.3184713375796179s" begin="-0.1910828025477707s" repeatCount="indefinite"></animate>
  </rect>
</g><g transform="rotate(144 50 50)">
  <rect x="46.5" y="26" rx="0" ry="0" width="7" height="12" fill="#000000">
    <animate attributeName="opacity" values="1;0" keyTimes="0;1" dur="0.3184713375796179s" begin="-0.15923566878980894s" repeatCount="indefinite"></animate>
  </rect>
</g><g transform="rotate(180 50 50)">
  <rect x="46.5" y="26" rx="0" ry="0" width="7" height="12" fill="#000000">
    <animate attributeName="opacity" values="1;0" keyTimes="0;1" dur="0.3184713375796179s" begin="-0.12738853503184713s" repeatCount="indefinite"></animate>
  </rect>
</g><g transform="rotate(216 50 50)">
  <rect x="46.5" y="26" rx="0" ry="0" width="7" height="12" fill="#000000">
    <animate attributeName="opacity" values="1;0" keyTimes="0;1" dur="0.3184713375796179s" begin="-0.09554140127388536s" repeatCount="indefinite"></animate>
  </rect>
</g><g transform="rotate(252 50 50)">
  <rect x="46.5" y="26" rx="0" ry="0" width="7" height="12" fill="#000000">
    <animate attributeName="opacity" values="1;0" keyTimes="0;1" dur="0.3184713375796179s" begin="-0.06369426751592357s" repeatCount="indefinite"></animate>
  </rect>
</g><g transform="rotate(288 50 50)">
  <rect x="46.5" y="26" rx="0" ry="0" width="7" height="12" fill="#000000">
    <animate attributeName="opacity" values="1;0" keyTimes="0;1" dur="0.3184713375796179s" begin="-0.03184713375796178s" repeatCount="indefinite"></animate>
  </rect>
</g><g transform="rotate(324 50 50)">
  <rect x="46.5" y="26" rx="0" ry="0" width="7" height="12" fill="#000000">
    <animate attributeName="opacity" values="1;0" keyTimes="0;1" dur="0.3184713375796179s" begin="0s" repeatCount="indefinite"></animate>
  </rect>
</g>
<!-- [ldio] generated by https://loading.io/ --></svg>